<?xml version="1.0" encoding="UTF-8"?>
<!-- Created with Inkscape (http://www.inkscape.org/) -->
<svg width="1e3" height="250" version="1.1" viewBox="0 0 264.58 66.146" xmlns="http://www.w3.org/2000/svg" xmlns:cc="http://creativecommons.org/ns#" xmlns:dc="http://purl.org/dc/elements/1.1/" xmlns:rdf="http://www.w3.org/1999/02/22-rdf-syntax-ns#">
 <metadata>
  <rdf:RDF>
   <cc:Work rdf:about="">
    <dc:format>image/svg+xml</dc:format>
    <dc:type rdf:resource="http://purl.org/dc/dcmitype/StillImage"/>
    <dc:title/>
   </cc:Work>
  </rdf:RDF>
 </metadata>
 <g transform="translate(0 -230.85)">
  <g transform="matrix(.26458 0 0 .26458 -4.5989 230.75)" style="font-feature-settings:normal;font-variant-caps:normal;font-variant-ligatures:normal;font-variant-numeric:normal" aria-label="FORESTER">
   <path d="m159.93 80.422h-56.853v36.053h45.067v18.547h-45.067v53.907h-18.547v-53.907l-10.573-9.1867 10.573-9.36v-54.6h75.4z" style="font-feature-settings:normal;font-variant-caps:normal;font-variant-ligatures:normal;font-variant-numeric:normal"/>
   <path d="m293.36 125.84-10.573 9.1867v32.76l-23.747 21.147h-45.067l-23.92-21.147v-32.76l-10.573-9.1867 10.573-9.36v-33.453l23.92-21.147h45.067l23.747 21.147v33.453zm-29.12 33.28v-67.253l-13.173-11.44h-29.12l-13.173 11.44v67.253l13.173 11.267h29.12z" style="font-feature-settings:normal;font-variant-caps:normal;font-variant-ligatures:normal;font-variant-numeric:normal"/>
   <path d="m407.97 188.93h-20.107l-26.52-53.733h-22.707v53.733h-18.547v-53.733l-10.573-9.36 10.573-9.1867v-54.773h61.36l20.627 23.92v25.48l-20.627 23.92zm-24.44-85.627v-9.7067l-10.92-13h-33.973v36.053h33.973z" style="font-feature-settings:normal;font-variant-caps:normal;font-variant-ligatures:normal;font-variant-numeric:normal"/>
   <path d="m514.2 188.76h-76.787v-53.733l-10.573-9.36 10.573-9.1867v-54.6h76.787v18.547h-58.24v36.053h44.893v18.547h-44.893v35.187h58.24z" style="font-feature-settings:normal;font-variant-caps:normal;font-variant-ligatures:normal;font-variant-numeric:normal"/>
   <path d="m628.46 167.78-23.92 21.147h-43.16l-23.92-21.147v-23.053h18.547v14.213l13.173 11.44h27.387l13.173-11.44v-14.213l-13.173-11.267h-32.587l-23.92-21.32v-29.12l23.92-21.147h40.387l23.92 21.147v21.147h-18.547v-13.173l-12.307-10.573h-26.347l-12.307 10.573v13.173l12.307 10.747h33.453l23.92 21.147z" style="font-feature-settings:normal;font-variant-caps:normal;font-variant-ligatures:normal;font-variant-numeric:normal"/>
   <path d="m740.21 80.422h-36.92v36.227l10.573 9.1867-10.573 9.1867v53.907h-18.547v-53.907l-10.573-9.1867 10.573-9.1867v-36.227h-37.093v-18.547h92.56z" style="font-feature-settings:normal;font-variant-caps:normal;font-variant-ligatures:normal;font-variant-numeric:normal"/>
   <path d="m843.61 188.76h-76.787v-53.733l-10.573-9.36 10.573-9.1867v-54.6h76.787v18.547h-58.24v36.053h44.893v18.547h-44.893v35.187h58.24z" style="font-feature-settings:normal;font-variant-caps:normal;font-variant-ligatures:normal;font-variant-numeric:normal"/>
   <path d="m960.8 188.93h-20.107l-26.52-53.733h-22.707v53.733h-18.547v-53.733l-10.573-9.36 10.573-9.1867v-54.773h61.36l20.627 23.92v25.48l-20.627 23.92zm-24.44-85.627v-9.7067l-10.92-13h-33.973v36.053h33.973z" style="font-feature-settings:normal;font-variant-caps:normal;font-variant-ligatures:normal;font-variant-numeric:normal"/>
  </g>
 </g>
</svg>
